<mxfile host="Electron" agent="Mozilla/5.0 (Macintosh; Intel Mac OS X 10_15_7) AppleWebKit/537.36 (KHTML, like Gecko) draw.io/26.0.9 Chrome/128.0.6613.186 Electron/32.2.5 Safari/537.36" version="26.0.9">
  <diagram name="Seite-1" id="qr4WPcWlPLyORMB2fuVT">
    <mxGraphModel dx="1777" dy="1267" grid="1" gridSize="10" guides="1" tooltips="1" connect="1" arrows="1" fold="1" page="1" pageScale="1" pageWidth="827" pageHeight="1169" math="0" shadow="0">
      <root>
        <mxCell id="0" />
        <mxCell id="1" parent="0" />
        <mxCell id="Y2Wc8ZRU2AqmPIUMNUnC-13" value="" style="rounded=1;whiteSpace=wrap;html=1;strokeWidth=1.5;shadow=1;fillColor=#FAFAFA;" vertex="1" parent="1">
          <mxGeometry x="-90" y="410" width="530" height="170" as="geometry" />
        </mxCell>
        <mxCell id="Y2Wc8ZRU2AqmPIUMNUnC-12" value="" style="rounded=1;whiteSpace=wrap;html=1;strokeWidth=1.5;shadow=1;fillStyle=auto;fillColor=#EDEDED;" vertex="1" parent="1">
          <mxGeometry x="180" y="440" width="250" height="130" as="geometry" />
        </mxCell>
        <mxCell id="Y2Wc8ZRU2AqmPIUMNUnC-5" value="Tertiary Sector" style="text;html=1;align=center;verticalAlign=middle;whiteSpace=wrap;rounded=1;fontFamily=Garamond;fontSize=15;fontColor=default;labelBorderColor=none;labelBackgroundColor=none;strokeColor=default;fillColor=#C2C2C2;strokeWidth=1.5;shadow=1;" vertex="1" parent="1">
          <mxGeometry x="190" y="530" width="230" height="30" as="geometry" />
        </mxCell>
        <mxCell id="Y2Wc8ZRU2AqmPIUMNUnC-6" value="Secondary Sector" style="text;html=1;align=center;verticalAlign=middle;whiteSpace=wrap;rounded=1;fontFamily=Garamond;labelBorderColor=none;labelBackgroundColor=none;textShadow=0;spacingTop=0;spacingBottom=0;fillColor=#CCCCCC;fontSize=15;spacingLeft=0;spacing=0;shadow=1;strokeColor=default;strokeWidth=1.5;" vertex="1" parent="1">
          <mxGeometry x="225" y="490" width="160" height="30" as="geometry" />
        </mxCell>
        <mxCell id="Y2Wc8ZRU2AqmPIUMNUnC-7" value="Primary Sector" style="text;html=1;align=center;verticalAlign=middle;whiteSpace=wrap;rounded=1;fontFamily=Garamond;fontSize=15;fontColor=default;labelBorderColor=none;labelBackgroundColor=none;strokeColor=default;fillColor=#E6E6E6;strokeWidth=1.5;shadow=1;" vertex="1" parent="1">
          <mxGeometry x="250" y="450" width="110" height="30" as="geometry" />
        </mxCell>
        <mxCell id="Y2Wc8ZRU2AqmPIUMNUnC-14" value="National economy" style="text;html=1;align=center;verticalAlign=middle;whiteSpace=wrap;rounded=0;fontFamily=Garamond;fontSize=15;fontColor=default;labelBorderColor=none;labelBackgroundColor=none;" vertex="1" parent="1">
          <mxGeometry x="242.5" y="410" width="125" height="30" as="geometry" />
        </mxCell>
        <mxCell id="Y2Wc8ZRU2AqmPIUMNUnC-15" value="Global&amp;nbsp;economy" style="text;html=1;align=center;verticalAlign=middle;whiteSpace=wrap;rounded=0;fontFamily=Garamond;fontSize=15;fontColor=default;labelBorderColor=none;labelBackgroundColor=none;" vertex="1" parent="1">
          <mxGeometry x="112.5" y="380" width="125" height="30" as="geometry" />
        </mxCell>
        <mxCell id="Y2Wc8ZRU2AqmPIUMNUnC-17" value="&lt;font face=&quot;Garamond&quot;&gt;Domestic stock indices&lt;/font&gt;" style="rounded=1;whiteSpace=wrap;html=1;strokeWidth=1.5;dashed=1;shadow=0;fontStyle=2" vertex="1" parent="1">
          <mxGeometry x="468" y="450" width="120" height="30" as="geometry" />
        </mxCell>
        <mxCell id="Y2Wc8ZRU2AqmPIUMNUnC-19" value="&lt;font face=&quot;Garamond&quot;&gt;1.&lt;/font&gt;" style="ellipse;whiteSpace=wrap;html=1;aspect=fixed;strokeWidth=1.5;fontStyle=3" vertex="1" parent="1">
          <mxGeometry x="-90" y="400" width="20" height="20" as="geometry" />
        </mxCell>
        <mxCell id="Y2Wc8ZRU2AqmPIUMNUnC-20" value="&lt;font face=&quot;Garamond&quot;&gt;2.&lt;/font&gt;" style="ellipse;whiteSpace=wrap;html=1;aspect=fixed;strokeWidth=1.5;fontStyle=3" vertex="1" parent="1">
          <mxGeometry x="180" y="430" width="20" height="20" as="geometry" />
        </mxCell>
        <mxCell id="Y2Wc8ZRU2AqmPIUMNUnC-22" value="" style="endArrow=none;dashed=1;html=1;rounded=0;entryX=0;entryY=0;entryDx=0;entryDy=0;strokeWidth=1.5;exitX=1;exitY=0.25;exitDx=0;exitDy=0;" edge="1" parent="1" source="Y2Wc8ZRU2AqmPIUMNUnC-12" target="Y2Wc8ZRU2AqmPIUMNUnC-17">
          <mxGeometry width="50" height="50" relative="1" as="geometry">
            <mxPoint x="381" y="440" as="sourcePoint" />
            <mxPoint x="500" y="330" as="targetPoint" />
          </mxGeometry>
        </mxCell>
        <mxCell id="Y2Wc8ZRU2AqmPIUMNUnC-21" value="&lt;font face=&quot;Garamond&quot;&gt;4.&lt;/font&gt;" style="ellipse;whiteSpace=wrap;html=1;aspect=fixed;strokeWidth=1.5;fontStyle=3" vertex="1" parent="1">
          <mxGeometry x="460" y="440" width="20" height="20" as="geometry" />
        </mxCell>
        <mxCell id="Y2Wc8ZRU2AqmPIUMNUnC-24" value="Global Industry Classification Standard (GICS)" style="rounded=1;whiteSpace=wrap;html=1;strokeWidth=1.5;dashed=1;shadow=0;fontStyle=2;fontFamily=Garamond;" vertex="1" parent="1">
          <mxGeometry x="-250" y="450" width="120" height="50" as="geometry" />
        </mxCell>
        <mxCell id="Y2Wc8ZRU2AqmPIUMNUnC-30" value="" style="rounded=1;whiteSpace=wrap;html=1;strokeWidth=1.5;shadow=1;fillStyle=auto;fillColor=#EDEDED;" vertex="1" parent="1">
          <mxGeometry x="-79" y="440" width="250" height="130" as="geometry" />
        </mxCell>
        <mxCell id="Y2Wc8ZRU2AqmPIUMNUnC-33" value="Sector" style="text;html=1;align=center;verticalAlign=middle;whiteSpace=wrap;rounded=0;fontFamily=Garamond;fontSize=15;fontColor=default;labelBorderColor=none;labelBackgroundColor=none;" vertex="1" parent="1">
          <mxGeometry x="-17.5" y="410" width="125" height="30" as="geometry" />
        </mxCell>
        <mxCell id="Y2Wc8ZRU2AqmPIUMNUnC-34" value="" style="rounded=1;whiteSpace=wrap;html=1;strokeWidth=1.5;shadow=1;fillStyle=auto;fillColor=#EDEDED;" vertex="1" parent="1">
          <mxGeometry x="-70" y="470" width="230" height="90" as="geometry" />
        </mxCell>
        <mxCell id="Y2Wc8ZRU2AqmPIUMNUnC-35" value="Industry branch" style="text;html=1;align=center;verticalAlign=middle;whiteSpace=wrap;rounded=0;fontFamily=Garamond;fontSize=15;fontColor=default;labelBorderColor=none;labelBackgroundColor=none;" vertex="1" parent="1">
          <mxGeometry x="-16.5" y="440" width="125" height="30" as="geometry" />
        </mxCell>
        <mxCell id="Y2Wc8ZRU2AqmPIUMNUnC-36" value="" style="rounded=1;whiteSpace=wrap;html=1;strokeWidth=1.5;shadow=1;fillStyle=auto;fillColor=#EDEDED;" vertex="1" parent="1">
          <mxGeometry x="-59" y="500" width="209" height="50" as="geometry" />
        </mxCell>
        <mxCell id="Y2Wc8ZRU2AqmPIUMNUnC-37" value="Industry" style="text;html=1;align=center;verticalAlign=middle;whiteSpace=wrap;rounded=0;fontFamily=Garamond;fontSize=15;fontColor=default;labelBorderColor=none;labelBackgroundColor=none;" vertex="1" parent="1">
          <mxGeometry x="-17.5" y="470" width="125" height="30" as="geometry" />
        </mxCell>
        <mxCell id="Y2Wc8ZRU2AqmPIUMNUnC-38" value="Subindustry" style="text;html=1;align=center;verticalAlign=middle;whiteSpace=wrap;rounded=0;fontFamily=Garamond;fontSize=15;fontColor=default;labelBorderColor=none;labelBackgroundColor=none;" vertex="1" parent="1">
          <mxGeometry x="-17.5" y="510" width="125" height="30" as="geometry" />
        </mxCell>
        <mxCell id="Y2Wc8ZRU2AqmPIUMNUnC-39" value="" style="endArrow=none;dashed=1;html=1;rounded=0;entryX=0;entryY=0.25;entryDx=0;entryDy=0;strokeWidth=1.5;exitX=1;exitY=0;exitDx=0;exitDy=0;" edge="1" parent="1" source="Y2Wc8ZRU2AqmPIUMNUnC-24" target="Y2Wc8ZRU2AqmPIUMNUnC-30">
          <mxGeometry width="50" height="50" relative="1" as="geometry">
            <mxPoint x="-157" y="555" as="sourcePoint" />
            <mxPoint x="-70" y="585" as="targetPoint" />
          </mxGeometry>
        </mxCell>
        <mxCell id="Y2Wc8ZRU2AqmPIUMNUnC-40" value="" style="endArrow=none;dashed=1;html=1;rounded=0;entryX=0;entryY=0.25;entryDx=0;entryDy=0;strokeWidth=1.5;exitX=1;exitY=0;exitDx=0;exitDy=0;" edge="1" parent="1" source="Y2Wc8ZRU2AqmPIUMNUnC-24" target="Y2Wc8ZRU2AqmPIUMNUnC-34">
          <mxGeometry width="50" height="50" relative="1" as="geometry">
            <mxPoint x="-120" y="485" as="sourcePoint" />
            <mxPoint x="-69" y="483" as="targetPoint" />
          </mxGeometry>
        </mxCell>
        <mxCell id="Y2Wc8ZRU2AqmPIUMNUnC-41" value="" style="endArrow=none;dashed=1;html=1;rounded=0;entryX=0;entryY=0.5;entryDx=0;entryDy=0;strokeWidth=1.5;exitX=1;exitY=0;exitDx=0;exitDy=0;" edge="1" parent="1" source="Y2Wc8ZRU2AqmPIUMNUnC-24" target="Y2Wc8ZRU2AqmPIUMNUnC-36">
          <mxGeometry width="50" height="50" relative="1" as="geometry">
            <mxPoint x="-110" y="470" as="sourcePoint" />
            <mxPoint x="-60" y="503" as="targetPoint" />
          </mxGeometry>
        </mxCell>
        <mxCell id="Y2Wc8ZRU2AqmPIUMNUnC-31" value="&lt;font face=&quot;Garamond&quot;&gt;3.&lt;/font&gt;" style="ellipse;whiteSpace=wrap;html=1;aspect=fixed;strokeWidth=1.5;fontStyle=3" vertex="1" parent="1">
          <mxGeometry x="-140" y="440" width="20" height="20" as="geometry" />
        </mxCell>
      </root>
    </mxGraphModel>
  </diagram>
</mxfile>
